<?xml version="1.0" encoding="UTF-8"?>
<svg version="1.1" xmlns="http://www.w3.org/2000/svg" width="720" height="729">
<path d="M0 0 C237.6 0 475.2 0 720 0 C720.165 89.88375 720.33 179.7675 720.5 272.375 C720.57283203 300.78899902 720.64566406 329.20299805 720.72070312 358.47802734 C720.75683594 393.09106445 720.75683594 393.09106445 720.7635498 409.27871704 C720.77151612 421.36767572 720.80604547 433.45627755 720.85338742 445.54513602 C720.90100552 457.87098811 720.91869454 470.19661465 720.9075596 482.52255527 C720.90231844 489.21320883 720.91049119 495.90310637 720.95372105 502.59367824 C720.99256423 508.64198205 720.99464667 514.68913167 720.96720886 520.73748779 C720.96381162 522.92561149 720.97400068 525.11380669 720.99906063 527.30178952 C721.19758797 545.71520023 721.19758797 545.71520023 716.20159149 552.11286354 C714.12511396 554.18067324 714.12511396 554.18067324 712 556 C710.90430403 557.08113353 710.90430403 557.08113353 709.7864728 558.18410814 C685.07906147 582.47745891 643.37698298 590.21146568 610.01171875 590.08789062 C609.14160156 590.07951172 608.27148438 590.07113281 607.375 590.0625 C606.46621094 590.05798828 605.55742188 590.05347656 604.62109375 590.04882812 C602.41398911 590.03721178 600.20703303 590.02088168 598 590 C598.03480469 591.16015625 598.06960938 592.3203125 598.10546875 593.515625 C598.41932317 608.28580424 596.84189604 622.31001381 587.16015625 634.2734375 C583.96338774 637.58510044 581.68107863 639.78768622 576.87890625 640.16796875 C575.73228516 640.17763672 575.73228516 640.17763672 574.5625 640.1875 C573.80066406 640.20167969 573.03882813 640.21585938 572.25390625 640.23046875 C569.76652685 639.97612666 568.15191894 639.24017196 566 638 C565.5153125 638.96679688 565.030625 639.93359375 564.53125 640.9296875 C560.40983142 648.99699046 556.10718431 656.23290383 550 663 C549.37480469 663.70640625 548.74960937 664.4128125 548.10546875 665.140625 C540.34993025 673.41741151 530.51815485 678.9442708 520 683 C519.16984375 683.32097656 518.3396875 683.64195312 517.484375 683.97265625 C499.1019544 689.75075629 478.5291565 686.7674877 461.72436523 678.18334961 C450.07503431 671.97102976 440.27678219 663.03254074 433 652 C432.49726563 652.15726563 431.99453125 652.31453125 431.4765625 652.4765625 C422.62744013 654.34688174 412.76076418 654.2165354 404.91796875 649.4609375 C398.36240455 644.46749349 397.116463 636.79043069 396 629 C395.69788334 623.99789597 395.81306137 619.00580097 396 614 C400.29 613.67 404.58 613.34 409 613 C407.94941406 611.88882813 406.89882813 610.77765625 405.81640625 609.6328125 C392.18482704 595.19450611 392.18482704 595.19450611 385.6015625 587.78515625 C384.43852968 586.48880015 383.23149999 585.23149999 382 584 C391.57337636 585.34095165 399.18221728 593.65979143 406 600 C404.60121198 595.53202662 402.86369228 591.36177921 400.875 587.125 C400.33617187 585.97257813 399.79734375 584.82015625 399.2421875 583.6328125 C398.83226562 582.76398437 398.42234375 581.89515625 398 581 C311.42976582 573.83562745 215.92296017 577.33449877 60.25 658.5 C47.14278031 669.76845087 34.42719527 682.18872513 24 696 C22.81470703 697.49466797 22.81470703 697.49466797 21.60546875 699.01953125 C16.53597934 705.43272895 11.8524762 712.03188414 7.39868164 718.88769531 C5.07910717 722.44943307 2.67134265 725.66082168 0 729 C0 488.43 0 247.86 0 0 Z M407 581 C407.37511719 581.54527344 407.75023437 582.09054687 408.13671875 582.65234375 C411.7339538 587.95305535 414.98158478 593.35048832 418 599 C418.66 598.67 419.32 598.34 420 598 C420.80045663 595.30941402 421.4954659 592.66781273 422.125 589.9375 C422.30675781 589.17888672 422.48851562 588.42027344 422.67578125 587.63867188 C423.12456584 585.76086265 423.56323336 583.88064085 424 582 C420.93466836 580.46733418 417.73245728 580.89723529 414.375 580.9375 C413.31539063 580.94426758 413.31539063 580.94426758 412.234375 580.95117188 C410.48954725 580.96296125 408.744763 580.98089676 407 581 Z M429 582 C427.09579269 588.80074041 425.59149447 594.91923749 426 602 C426.54140625 601.31550781 427.0828125 600.63101563 427.640625 599.92578125 C430.29383984 596.63561914 433.01371854 593.40855573 435.75 590.1875 C436.50990234 589.2912793 436.50990234 589.2912793 437.28515625 588.37695312 C438.52281956 586.91744451 439.76132327 585.45864863 441 584 C438.1004339 582.34123921 436.08364791 581.7638784 432.75 581.875 C431.5125 581.91625 430.275 581.9575 429 582 Z M443.4140625 587.32421875 C442.04663199 590.09593138 442.04663199 590.09593138 441 593 C440.12368005 594.70325169 439.23978366 596.40263069 438.34765625 598.09765625 C437.57623688 599.74810474 436.81440803 601.40307167 436.0625 603.0625 C435.46598633 604.34157227 435.46598633 604.34157227 434.85742188 605.64648438 C432.91811623 609.18497512 432.91811623 609.18497512 432 613 C452.46 613 472.92 613 494 613 C494 604.75 494 596.5 494 588 C491.68013452 585.68013452 491.00354154 585.66895032 487.8449707 585.33886719 C486.98680252 585.24667908 486.12863434 585.15449097 485.24446106 585.05950928 C481.30934069 584.69284915 477.37399011 584.33857758 473.43481445 584.01806641 C471.36020915 583.8399511 469.2873674 583.63987849 467.21704102 583.41748047 C453.97756258 581.20244906 453.97756258 581.20244906 443.4140625 587.32421875 Z M500 587 C500 588.65 500 590.3 500 592 C500.66 590.68 501.32 589.36 502 588 C501.34 587.67 500.68 587.34 500 587 Z M507 588 C503.61449155 596.61765786 503.23069219 603.15446252 502 613 C521.14 613 540.28 613 560 613 C560 607.34209995 559.98077637 603.8622702 558.625 598.6875 C558.36976563 597.68074219 558.11453125 596.67398438 557.8515625 595.63671875 C557.0714787 592.81240183 557.0714787 592.81240183 555 590 C551.85541651 589.39254789 551.85541651 589.39254789 548.11328125 589.26953125 C547.41921677 589.229384 546.72515228 589.18923676 546.01005554 589.14787292 C544.53172161 589.06496112 543.05298834 588.98893156 541.57397461 588.91918945 C539.36536698 588.8149941 537.15854801 588.6918734 534.95117188 588.56445312 C525.62686151 588.05073759 516.33784417 587.90019843 507 588 Z " fill="#6A70DE" transform="translate(0,0)"/>
<path d="M0 0 C3.79552523 0.00638925 7.59105188 0.00684931 11.38658166 0.00802541 C18.52554909 0.01109399 25.66450061 0.01924491 32.80346113 0.0293749 C40.95145117 0.04067772 49.09944211 0.04608163 57.24743807 0.05107033 C73.96368423 0.06143304 90.67991452 0.07894266 107.39614892 0.10139394 C107.44948388 1.060537 107.50281884 2.01968007 107.55777001 3.00788808 C107.67499413 4.89688832 107.67499413 4.89688832 107.79458642 6.82405019 C107.86854638 8.07194325 107.94250634 9.31983632 108.01870751 10.60554433 C108.34521086 13.62960735 108.82669862 15.78244411 110.02114892 18.53889394 C111.68974931 22.86208587 111.67743793 24.65456737 110.39614892 29.10139394 C101.72347308 48.48033858 86.04876978 62.52347657 66.39614892 70.10139394 C65.56599267 70.4223705 64.73583642 70.74334706 63.88052392 71.07405019 C45.49810332 76.85215023 24.92530542 73.86888163 8.12051415 65.28474355 C-3.52881677 59.0724237 -13.32706889 50.13393468 -20.60385108 39.10139394 C-21.35795264 39.33729238 -21.35795264 39.33729238 -22.12728858 39.57795644 C-30.97641095 41.44827568 -40.84308689 41.31792934 -48.68588233 36.56233144 C-55.24144653 31.56888742 -56.48738808 23.89182463 -57.60385108 16.10139394 C-57.90629741 11.09383155 -57.74838739 6.11327456 -57.60385108 1.10139394 C-38.39531272 0.21587334 -19.2255991 -0.03802947 0 0 Z " fill="#7E85EE" transform="translate(453.6038510799408,612.8986060619354)"/>
<path d="M0 0 C5.76530402 2.96712533 9.20061071 7.18143466 12 13 C13.06045738 16.42844078 13.2252671 19.7454742 13.39453125 23.3203125 C14.75392844 49.08238484 18.31351797 69.19236894 33.43359375 90.64453125 C36.19812535 94.80166979 36.13494672 98.17368819 36.125 103.0625 C36.13176758 103.73861328 36.13853516 104.41472656 36.14550781 105.11132812 C36.15102704 108.97111118 35.71486176 112.2846557 34.75 116 C34.30177338 119.6645555 35.17630867 121.53370369 37.2890625 124.41796875 C39.35890078 127.01988506 41.53014082 129.52663276 43.70703125 132.0390625 C46.94213285 135.81100546 49.55889745 139.77816606 52.0625 144.0625 C52.41940918 144.66924561 52.77631836 145.27599121 53.14404297 145.90112305 C54.11846623 147.58798504 55.06003623 149.29369634 56 151 C56.57234375 152.01191406 57.1446875 153.02382813 57.734375 154.06640625 C59.11662934 157.27033528 59.31421873 159.41135481 59.1875 162.875 C59.14689453 164.32519531 59.14689453 164.32519531 59.10546875 165.8046875 C59.07066406 166.52914062 59.03585937 167.25359375 59 168 C56.44142406 166.72071203 56.28540369 165.75510553 55.1796875 163.15234375 C49.13529166 149.44677715 41.62862528 137.3786832 33.12304688 125.07470703 C20.55824138 106.87770147 8.90344653 88.64515431 -0.52734375 68.625 C-1.87662329 65.75417832 -1.87662329 65.75417832 -5 64 C-0.96246292 77.42349991 6.79846035 89.09885495 14 101 C14.85174805 102.40886475 14.85174805 102.40886475 15.72070312 103.84619141 C18.79013524 108.91221778 21.88353803 113.96277983 25 119 C19.04237182 122.2030259 14.24152178 121.25310931 7.875 119.625 C-10.1875186 113.65939753 -21.21750265 97.50380419 -29.56738281 81.31738281 C-37.68196257 64.85825544 -42.17083237 47.48874382 -42.375 29.125 C-42.38901855 28.2693042 -42.40303711 27.4136084 -42.41748047 26.53198242 C-42.34829644 17.36155095 -40.2913576 8.24750657 -33.5859375 1.59765625 C-23.68262883 -7.16296295 -11.30199201 -4.99580806 0 0 Z " fill="#6268D7" transform="translate(432,405)"/>
<path d="M0 0 C14.19 0 28.38 0 43 0 C43 17.02089398 42.73725732 33.31618692 30.3125 46.1875 C26.29343184 49.98482647 22.56194985 50.31664068 17.21484375 50.1953125 C13.87860219 49.9011113 12.42960136 49.36018418 10 47 C6.44929 40.2020313 5.35162399 33.69555872 4.9375 26.125 C4.27913894 16.95491596 2.914385 8.74315499 0 0 Z " fill="#5559CD" transform="translate(555,590)"/>
<path d="M0 0 C11.58246776 8.16414633 20.20907717 16.58564824 27 29 C27.26554687 27.94039062 27.53109375 26.88078125 27.8046875 25.7890625 C28.16109518 24.40094837 28.51788596 23.01293257 28.875 21.625 C29.04902344 20.92632813 29.22304688 20.22765625 29.40234375 19.5078125 C30.7734375 14.2265625 30.7734375 14.2265625 33 12 C35.125 12.375 35.125 12.375 37 13 C36.855625 13.79664063 36.71125 14.59328125 36.5625 15.4140625 C36.2840625 17.00347656 36.2840625 17.00347656 36 18.625 C35.7215625 20.19121094 35.7215625 20.19121094 35.4375 21.7890625 C35.01284203 24.90574865 34.92454794 27.85930812 35 31 C35.42410156 30.443125 35.84820312 29.88625 36.28515625 29.3125 C39.36235308 25.30876258 42.48004851 21.34864227 45.75 17.5 C46.57757813 16.52546875 46.57757813 16.52546875 47.421875 15.53125 C49 14 49 14 52 13 C54.1875 13.9375 54.1875 13.9375 56 15 C55.5153125 15.7528125 55.030625 16.505625 54.53125 17.28125 C53.52578125 18.87453125 53.52578125 18.87453125 52.5 20.5 C52.1383374 21.07008789 51.7766748 21.64017578 51.40405273 22.22753906 C49.35765104 25.53193461 47.57001227 28.83107969 46.00390625 32.390625 C41.20702067 43.27210204 41.20702067 43.27210204 37.953125 45.234375 C35.51486495 45.53693282 33.43844716 45.29782561 31 45 C29.93910156 45.0825 28.87820313 45.165 27.78515625 45.25 C19.43983498 45.86179904 19.43983498 45.86179904 15.859375 43.71875 C14.04171534 41.91746565 12.52988746 40.05020451 11 38 C9.84226038 36.65890796 8.67543954 35.32560582 7.5 34 C6.92507813 33.33226562 6.35015625 32.66453125 5.7578125 31.9765625 C3.49038174 29.42696258 1.07014528 27.05764829 -1.36328125 24.66796875 C-3.74514907 22.24062374 -5.8537913 19.63677069 -8 17 C-8.66 16.34 -9.32 15.68 -10 15 C-0.42662364 16.34095165 7.18221728 24.65979143 14 31 C12.58273483 26.55155047 10.90985463 22.28699091 9.0625 18 C8.55847656 16.824375 8.05445313 15.64875 7.53515625 14.4375 C4.5913652 7.65442827 4.5913652 7.65442827 0 2 C0 1.34 0 0.68 0 0 Z " fill="#6369D9" transform="translate(392,569)"/>
<path d="M0 0 C0.495 1.485 0.495 1.485 1 3 C-2.3410822 3.15909915 -4.76898801 3.08355753 -7.9375 1.9375 C-11.64040029 0.8039591 -14.24156716 1.24831343 -18 2 C-18.72929551 6.37577304 -18.85268523 8.72198005 -16.34765625 12.4765625 C-11.74762839 17.69908974 -6.70389914 22.04616979 -1.06640625 26.11328125 C1.29044231 28.26518645 1.91865753 30.04214788 3 33 C-7.86088134 33.14310247 -18.60322823 32.71437393 -29.4375 32 C-30.95895696 31.90321397 -32.48044134 31.80685783 -34.00195312 31.7109375 C-37.66829643 31.47888691 -41.33424018 31.24111356 -45 31 C-43.3621876 18.07161401 -36.24350862 8.4959554 -26.17578125 0.5625 C-19.30266029 -3.73133695 -7.02729364 -3.88521986 0 0 Z " fill="#858AF3" transform="translate(552,557)"/>
<path d="M0 0 C0.66 0.33 1.32 0.66 2 1 C0.57044547 5.40110045 -1.83138511 8.36932802 -4.875 11.75 C-12.5051783 20.49368236 -19.15718412 29.99393312 -25.4296875 39.75 C-26.13351562 40.843125 -26.83734375 41.93625 -27.5625 43.0625 C-28.16191406 44.02285156 -28.76132812 44.98320313 -29.37890625 45.97265625 C-29.91386719 46.64167969 -30.44882812 47.31070313 -31 48 C-31.99 48 -32.98 48 -34 48 C-29.08193613 31.48591297 -13.46160368 13.75565571 -2 1 C-1.34 0.67 -0.68 0.34 0 0 Z " fill="#7F84EE" transform="translate(550,488)"/>
<path d="M0 0 C2.66666667 0 5.33333333 0 8 0 C7.35942289 3.95920277 6.71165192 7.91719487 6.0625 11.875 C5.88009766 13.00292969 5.69769531 14.13085938 5.50976562 15.29296875 C5.33251953 16.36933594 5.15527344 17.44570313 4.97265625 18.5546875 C4.81031494 19.54968262 4.64797363 20.54467773 4.48071289 21.56982422 C4 24 4 24 3 26 C1.68 26 0.36 26 -1 26 C-1.02694851 24.04174127 -1.04637218 22.08337774 -1.0625 20.125 C-1.07410156 19.03445313 -1.08570313 17.94390625 -1.09765625 16.8203125 C-1 14 -1 14 0 12 C0.07065617 9.95944995 0.08421976 7.91665743 0.0625 5.875 C0.05347656 4.77929688 0.04445313 3.68359375 0.03515625 2.5546875 C0.02355469 1.71164062 0.01195312 0.86859375 0 0 Z " fill="#5559CD" transform="translate(499,587)"/>
<path d="M0 0 C4.4785979 -0.17563129 8.02584132 -0.22085338 12 2 C12.33 2.99 12.66 3.98 13 5 C8.55719328 5.21156222 5.0916861 4.80795432 1 3 C0.67 2.01 0.34 1.02 0 0 Z " fill="#7D82ED" transform="translate(540,555)"/>
</svg>
